<?xml version="1.0" encoding="utf-8"?>
<svg xmlns="http://www.w3.org/2000/svg" xmlns:xlink="http://www.w3.org/1999/xlink" version= "1.1" width="1618px" height="1000px" viewBox="-449 214 1618 1000">
<g id="layer1">
<g style="fill:rgb(0,178,230); fill-opacity:1.0; stroke-linejoin: miter">
<path d="M-449.001,212.87222C-449.29984,212.87222,-449.58646,212.99095,-449.79776,213.20226C-450.00906,213.41356,-450.12778,213.70015,-450.12778,213.999L-450.12677,1214.0C-450.12677,1214.6223,-449.62228,1215.1267,-449.0,1215.1267L1169.001,1215.1277C1169.2998,1215.1277,1169.5864,1215.009,1169.7977,1214.7977C1170.009,1214.5864,1170.1277,1214.2998,1170.1277,1214.001L1170.1267,214.0C1170.1267,213.3777,1169.6223,212.87323,1169.0,212.87323L-449.001,212.87222 Z"/>
</g>
<g style="fill:rgb(34,43,50); fill-opacity:0.99607843; stroke-linejoin: miter">
<path d="M82.15528,715.45355L86.25612,741.6104L90.35698,767.76715Q82.327126,764.8559,74.29729,761.9446Q67.327576,731.68964,60.357872,701.4347L82.15528,715.45355"/>
</g>
<g style="fill:rgb(34,43,50); fill-opacity:0.32941177; stroke-linejoin: miter">
<path d="M944.394,1138.835L939.46124,1142.5988Q904.2956,1154.1013,733.36615,1161.9464Q561.2539,1169.793,327.9519,1169.9934Q105.29227,1169.6187,-28.252644,1161.8024Q-71.04218,1159.274,-98.753174,1156.1478L-122.047325,1152.901Q-141.24823,1149.519,-141.48776,1145.7119Q-135.73979,1133.9873,17.412897,1125.2562Q170.56532,1116.525,401.2793,1114.7695Q631.99646,1113.6031,785.2472,1120.3939Q938.49774,1127.1844,944.394,1138.835 Z"/>
</g>
<g style="fill:rgb(34,43,50); fill-opacity:1.0; stroke-linejoin: miter">
<path d="M18.645617,375.3406L18.63915,375.34216L18.63915,375.34488L18.639208,375.34073L18.645552,375.34204 Z M691.9923,1041.8369C691.9337,1041.8514,691.88153,1041.8572,691.83386,1041.8572L691.83264,1041.8579L691.98175,1041.8369 Z M568.35565,1044.9374C568.383,1044.9432,568.3952,1044.9473,568.3954,1044.9481L568.3899,1044.9495C568.3826,1044.9474,568.36743,1044.944,568.34644,1044.9374 Z M607.7601,1045.5883C607.74756,1045.5919,607.73834,1045.5936,607.73376,1045.594L607.73047,1045.5952C607.73035,1045.5935,607.7368,1045.5914,607.75037,1045.5883 Z M183.52463,1043.6324L271.171,1043.743L271.16956,1043.7444C317.80728,1043.8767,398.84973,1043.9918,456.32104,1044.0735L463.57227,1044.0842L463.57104,1044.0852C517.7171,1044.2666,562.7441,1044.51,567.9227,1044.89L567.91394,1044.8914C567.8619,1045.9647,567.31805,1048.8292,566.3454,1052.271L566.34375,1052.2773L564.4256,1059.3129L364.14362,1060.9143L364.14432,1060.915L165.09467,1062.3953L173.79134,1053.4897L183.52463,1043.6324 Z M691.3858,1041.8733C691.6305,1042.9368,691.8707,1046.171,691.89734,1050.3481L691.9527,1059.063L603.74713,1059.6195L605.6486,1052.9998C606.6741,1049.4683,607.6687,1046.4668,608.04767,1045.5472L608.0379,1045.5486C610.62317,1045.2664,628.2276,1044.4327,649.43097,1043.5748L649.43097,1043.5758L672.9896,1042.6162L685.205,1042.1185L685.2049,1042.1196C688.3338,1041.9913,690.4901,1041.906,691.37524,1041.8737 Z M16.160982,1142.5459L16.157286,1142.547L16.152826,1142.5455L16.160952,1142.5469 Z M25.442465,375.18622C25.438475,375.18622,25.434248,375.18634,25.43017,375.18622L18.639208,375.34073L18.639242,375.34216L18.62641,375.3413C14.925587,375.4772,3.1345813,376.22003,-7.557617,377.06754L-7.5575542,377.0686L-7.609832,377.07135L-7.609952,377.0723L-7.6637173,377.07553L-7.663748,377.0766C-27.111351,378.53238,-27.355175,378.5719,-67.411804,389.82983L-67.41177,389.83118C-104.06658,399.97748,-108.376686,401.18057,-107.71761,404.21448L-107.70731,404.25647L-107.70814,404.2579C-107.09854,407.11877,-81.17015,563.5671,-49.842346,753.4257L-38.144222,824.3506L-29.12891,879.0113C10.541941,1119.5199,13.981201,1140.1677,15.227757,1142.0536L15.227788,1142.0546C15.456666,1142.3999,15.753598,1142.5269,16.0407,1142.5441L16.036955,1142.5455C16.272947,1142.8091,16.642248,1143.8998,16.652258,1145.4797L16.672678,1148.7104C16.673986,1148.9098,16.754484,1149.1002,16.896254,1149.2405C17.037962,1149.3801,17.2296,1149.4585,17.428762,1149.4574L757.49097,1144.7689C757.8974,1144.7665,758.2285,1144.4402,758.23724,1144.0338L758.7559,1120.4307C759.1193,1107.5043,759.29016,1081.6553,759.1723,1063.0609L758.959,1029.3279C758.95624,1028.9128,758.6176,1028.5789,758.20294,1028.5813L138.80275,1032.5016L138.77507,1028.1313L138.74266,1023.0099C138.74083,1022.7355,138.58972,1022.48376,138.34792,1022.353C138.23503,1022.29236,138.11069,1022.2623,137.98691,1022.26294C137.84575,1022.26416,137.70512,1022.30493,137.5824,1022.3845L134.81035,1024.1836L134.7898,1024.1971C134.00194,1024.7463,133.46661,1024.9967,133.16306,1025.0864L133.16318,1025.0869C131.94138,1015.4408,88.45835,753.0651,87.33933,748.5214L87.34103,748.5231C87.34407,748.5214,87.30783,748.3766,87.215836,748.2373L87.21822,748.23865C87.01739,747.9412,86.67249,747.8827,86.6533,747.87994L86.653625,747.8807C86.35639,747.8146,85.7971,747.8003,85.13442,747.8042C82.10595,747.8235,74.81743,748.2742,66.50165,748.9274L66.49989,748.9282C58.542355,749.4883,53.727436,749.7927,50.612793,749.8126C46.938976,749.8358,45.78786,749.4576,44.70299,748.744L44.68635,748.7333C41.985523,747.0571,40.719048,743.42395,41.71997,740.1482L41.72152,740.1437C42.730053,736.76605,47.463837,735.3101,66.382385,734.2833L66.38098,734.28436C76.64184,733.82,82.9019,733.1223,84.11425,732.2354L84.11456,732.2363C84.26949,732.122,84.56855,731.85455,84.56566,731.41376C84.56539,731.37085,84.56137,731.33154,84.56087,731.32513L84.56072,731.3239C84.40042,729.69824,71.36145,649.71674,55.367893,552.8873L55.367863,552.88824L26.18849,375.8152C26.128325,375.45004,25.81141,375.18384,25.442465,375.18622 Z"/>
</g>
<g style="fill:rgb(68,197,229); fill-opacity:0.99607843; stroke-linejoin: miter">
<path d="M-62.996147,422.4247L-21.501722,409.41214L19.992523,396.39957Q68.86511,705.118,117.73755,1013.83594Q82.06331,1049.3177,46.38914,1084.7999L-62.996147,422.4247 Z"/>
</g>
<g style="fill:rgb(103,118,120); fill-opacity:0.99607843; stroke-linejoin: miter">
<path d="M183.52481,1043.5557L183.47003,1043.578L173.73674,1053.4357L173.73637,1053.436L165.03952,1062.3416L165.09496,1062.4719L364.14474,1060.9929L364.14624,1060.9908L564.42664,1059.3901L564.5001,1059.3335L566.4177,1052.298L566.41766,1052.2985L566.4198,1052.2911C567.3886,1048.8615,567.9344,1045.9976,567.98987,1044.9082L567.98065,1044.9089L567.9394,1044.957L567.9285,1044.814C562.75085,1044.4329,517.7157,1044.19,463.58163,1044.0092L463.57346,1044.0106L463.5727,1044.0076L456.3212,1043.997L454.676,1043.9948L453.0055,1043.9922C395.80222,1043.9105,316.89755,1043.7976,271.17828,1043.6685L271.17236,1043.6698L271.17093,1043.6667L183.52481,1043.5557 Z"/>
</g>
<g style="fill:rgb(103,118,120); fill-opacity:0.99607843; stroke-linejoin: miter">
<path d="M691.3746,1041.7664L691.3712,1041.7676C690.4291,1041.8008,688.3874,1041.8823,685.2025,1042.0132L685.20074,1042.011L672.9851,1042.5089L649.4286,1043.4691L649.4267,1043.4674C628.2277,1044.3252,610.6149,1045.1598,608.0264,1045.4424L608.03534,1045.6002L608.0261,1045.6018C608.0238,1045.6051,608.0217,1045.6107,608.01965,1045.616L608.01965,1045.6167L607.9475,1045.5083C607.56476,1046.438,606.57074,1049.4392,605.5455,1052.9694L605.5455,1052.97L603.64386,1059.5901L603.7477,1059.7269L691.95337,1059.1705L692.0602,1059.0624L692.0049,1050.3479C691.97845,1046.1722,691.7384,1042.9259,691.49054,1041.8494L691.3851,1041.7661 Z"/>
</g>
<g style="fill:rgb(0,0,0); fill-opacity:0.99607843; stroke-linejoin: miter">
<path d="M245.7819,1049.1028L245.78218,1049.1053L245.78172,1049.1038L245.7819,1049.1028 Z"/>
</g>
<g style="fill:rgb(255,255,255); fill-opacity:0.99607843; stroke-linejoin: miter">
<path d="M-42.01304,982.64685L-42.0128,982.6476Q-42.012825,982.6488,-42.01304,982.64685 Z"/>
</g>
<g style="fill:rgb(255,255,255); fill-opacity:1.0; stroke-linejoin: miter">
<path d="M176.97227,1164.3422L176.97246,1164.3424L176.97246,1164.3434L176.97227,1164.3422 Z"/>
</g>
<g style="fill:rgb(255,255,255); fill-opacity:1.0; stroke-linejoin: miter">
<path d="M185.06657,1013.60693L185.0665,1013.6085L185.06657,1013.60754L185.06657,1013.60693 Z"/>
</g>
<g style="fill:rgb(255,255,255); fill-opacity:1.0; stroke-linejoin: miter">
<path d="M123.42765,654.20795C123.16877,654.30304,122.91189,654.4042,122.65691,654.5128C122.65679,654.5121,122.65679,654.5116,122.656624,654.5114L122.65189,654.51355C122.90717,654.40393,123.16418,654.302,123.42274,654.2082 Z"/>
</g>
<g style="fill:rgb(255,255,255); fill-opacity:1.0; stroke-linejoin: miter">
<path d="M117.564384,595.4385C117.64181,595.7445,117.71999,596.0503,117.79777,596.3565C117.7929,596.3573,117.7878,596.35767,117.78277,596.35846L117.78271,596.3611C117.70971,596.0512,117.63525,595.7442,117.55988,595.4385 Z"/>
</g>
<g style="fill:rgb(255,255,255); fill-opacity:1.0; stroke-linejoin: miter">
<path d="M117.05976,593.48096L117.10703,593.6069L117.059364,593.48315L117.05976,593.48096 Z"/>
</g>
<g style="fill:rgb(60,70,79); fill-opacity:0.99607843; stroke-linejoin: miter">
<path d="M11.300137,375.76236L11.300171,375.76343L11.300137,375.76236L11.300171,375.76343L11.300137,375.76236L11.300171,375.76343L11.300137,375.76236Q11.300137,375.76236,11.300137,375.76236 Z"/>
</g>
<g style="fill:rgb(60,70,79); fill-opacity:0.99607843; stroke-linejoin: miter">
<path d="M28.10923,355.7489L28.109203,355.74963L28.109268,355.7507L28.109203,355.74963L28.10923,355.7489L28.109203,355.74963L28.109268,355.7507Q28.109203,355.74963,28.10923,355.7489 Z"/>
</g>
<g style="fill:rgb(0,0,0); fill-opacity:0.99607843; stroke-linejoin: miter">
<path d="M74.16932,966.6802L74.16932,966.68036L74.169464,966.6809L74.16932,966.6802 Z"/>
</g>
<g style="fill:rgb(0,0,0); fill-opacity:1.0; stroke-linejoin: miter">
<path d="M433.44855,821.4269L412.09338,822.69745L412.09338,822.69794L410.68652,840.2815L410.68652,840.2823L431.24957,839.08545L431.24957,839.0863L433.44855,821.4269L433.44855,821.42786 Z M407.12094,822.9927L376.4737,824.81537L376.4737,824.8158L376.30756,842.2811L405.71463,840.57117L405.7147,840.5721L407.12094,822.9927L407.12094,822.99365 Z M371.5374,825.1086L336.86752,827.1706L337.02524,844.5662L337.02524,844.56726L371.37103,842.5683L371.3711,842.5693L371.5374,825.1086L371.5374,825.10974 Z M331.93622,827.4638L296.4775,829.57294L296.4775,829.57385L297.8547,846.8448L297.8547,846.84576L332.09393,844.8533L332.09393,844.854L331.93622,827.4638L331.93628,827.4648 Z M291.5515,829.8655L249.36588,832.3748L249.36597,832.3757L252.66177,849.4739L252.66177,849.4746L292.92847,847.1313L292.92853,847.1321L291.5515,829.8655L291.55154,829.86646 Z M244.39821,832.6698L210.14703,834.70715L210.14703,834.7079L213.90253,851.72845L213.90257,851.7295L247.69276,849.7627L247.6928,849.7631L244.39821,832.6698L244.39821,832.671 Z M430.6303,844.0579L410.28983,845.2413L410.28983,845.24225L409.05392,860.69055L409.05392,860.69147L428.72226,859.38L428.72226,859.381L430.6303,844.0579L430.6303,844.0589 Z M405.31772,845.5307L376.26056,847.2209L376.26056,847.22186L376.11127,862.8851L376.11127,862.8857L404.07877,861.02203L404.07877,861.0231L405.31772,845.5307L405.31772,845.5317 Z M371.32407,847.5082L337.06995,849.50146L337.06995,849.50244L337.2146,865.4762L337.2146,865.4771L371.17435,863.2136L371.17435,863.2146L371.32407,847.5082L371.32407,847.5091 Z M332.13864,849.7881L298.2466,851.7601L298.2467,851.761L299.54025,867.98676L299.5404,867.9877L332.2838,865.80536L332.2838,865.80585L332.13864,849.7881L332.13864,849.789 Z M293.32056,852.0466L253.60324,854.35803L253.60324,854.35895L256.77924,870.8356L256.77924,870.83655L294.61783,868.31476L294.61792,868.3154L293.32056,852.0466L293.32062,852.04755 Z M248.6343,854.6464L214.97867,856.6054L214.97873,856.60626L218.67851,873.374L218.67857,873.3752L251.81836,871.16595L251.81842,871.1667L248.6343,854.6464L248.63432,854.64764 Z M428.10153,864.36316L408.6562,865.6589L408.6562,865.6594L407.04868,885.7521L407.04868,885.7531L425.5911,884.52496L425.5911,884.5257L428.10153,864.36316L428.1016,864.3638 Z M403.68094,865.99L376.0641,867.82996L376.0641,867.83124L375.874,887.81506L375.874,887.81604L402.0737,886.0813L402.0737,886.08215L403.68094,865.99L403.68094,865.9909 Z M371.12717,868.1588L337.25955,870.4158L337.25955,870.4167L337.44043,890.3589L337.44043,890.3596L370.93695,888.1416L370.93704,888.14233L371.12717,868.1588L371.12726,868.1596 Z M332.32858,870.74414L299.93222,872.9029L299.93222,872.9038L301.5137,892.73645L301.51373,892.73724L332.50943,890.6852L332.50943,890.6856L332.32858,870.74414L332.32858,870.74506 Z M295.00986,873.2307L257.7197,875.7154L257.7197,875.7163L261.5107,895.3838L261.5107,895.3847L296.5917,893.06256L296.5917,893.06354L295.00986,873.2307L295.00986,873.23157 Z M252.75894,876.04626L219.75339,878.2454L219.75339,878.2464L224.08157,897.8606L224.08157,897.8616L256.54965,895.7122L256.5497,895.71313L252.75894,876.04626L252.75894,876.0471 Z M424.97006,889.5103L406.65103,890.7226L406.65103,890.7236L404.40182,918.8392L404.40182,918.8401L421.425,917.9789L421.425,917.9798L424.97006,889.5103L424.97006,889.5112 Z M401.67615,891.0518L375.82675,892.7626L375.82675,892.76355L375.56482,920.2957L375.56482,920.2967L399.43317,919.0898L399.43317,919.0906L401.67615,891.0518L401.67615,891.0527 Z M370.88983,893.089L337.48508,895.29987L337.48517,895.3006L337.72925,922.2069L337.7293,922.20795L370.62866,920.54535L370.62866,920.5463L370.88983,893.089L370.88992,893.08997 Z M332.5542,895.6262L301.90573,897.6544L301.90576,897.6554L303.9994,923.9115L303.9994,923.91254L332.7976,922.45636L332.79776,922.45734L332.5542,895.6262L332.5542,895.62683 Z M296.98383,897.9805L262.4517,900.26526L262.45175,900.2659L267.36627,925.7621L267.36627,925.76306L299.07172,924.1605L299.07172,924.16125L296.98383,897.9805L296.98383,897.9814 Z M257.49048,900.5936L225.15671,902.7332L225.15671,902.73425L230.64742,927.6172L230.64742,927.61816L262.39038,926.01385L262.39038,926.0143L257.49048,900.5936L257.49048,900.59454 Z M420.80627,922.94763L404.00534,923.7968L404.00534,923.7977L402.5907,941.477L402.59076,941.47784L417.95248,940.6644L418.10278,940.65704Q418.36142,940.66925,418.5945,940.7095L418.59457,940.71045L420.80627,922.94763L420.8064,922.9486 Z M399.0366,924.04736L375.51776,925.2362L375.51785,925.23694L375.3495,942.9177L375.3495,942.9186L397.62122,941.7396L397.62134,941.74084L399.0366,924.04736L399.0366,924.0483 Z M370.58182,925.4856L337.7741,927.1435L337.7741,927.1444L337.9353,944.8965L337.9353,944.89777L370.41324,943.1784L370.41333,943.1794L370.58182,925.4856L370.5819,925.4866 Z M332.8425,927.39276L304.39166,928.83026L304.3917,928.83154L305.8081,946.5963L305.8082,946.5973L333.00357,945.15717L333.00366,945.158L332.8425,927.39276L332.8425,927.3936 Z M299.4641,929.0796L268.30905,930.65356L268.30905,930.6547L271.72916,948.3986L271.72916,948.39935L300.8816,946.8566L300.8816,946.8578L299.4641,929.0796L299.46417,929.08057 Z M263.3332,930.9053L231.72534,932.5024L231.72534,932.50336L235.65376,950.3066L235.65376,950.30725L266.75555,948.66156L266.75555,948.6625L263.3332,930.9053L263.33325,930.90625 Z M267.69818,953.5518L236.7314,955.1901L236.7314,955.1908L239.62007,968.28253L270.28552,966.9745L270.28564,966.97546L267.69818,953.5518L267.6983,953.55273 Z M301.274,951.776L272.6719,953.2889L272.6719,953.2898L275.26895,966.7621L275.26895,966.76306L302.37695,965.60626L302.37704,965.60724L301.274,951.776L301.27408,951.777 Z M333.0483,950.095L306.20053,951.51575L306.20053,951.51666L307.30707,965.396L307.30707,965.397L333.1769,964.2928L333.1769,964.2937L333.0483,950.095L333.0483,950.09595 Z M370.3661,948.1208L337.97995,949.83435L337.98,949.8352L338.1091,964.0825L338.1091,964.08344L370.22723,962.7127L370.22723,962.7135L370.3661,948.1208L370.36618,948.12177 Z M397.22437,946.7004L375.30252,947.86017L375.30252,947.861L375.163,962.5023L375.1631,962.503L396.0315,961.61237L396.0315,961.61334L397.22437,946.7004L397.22446,946.70123 Z M417.98535,945.6028L402.19382,946.4379L402.19385,946.4389L400.99698,961.40045L400.99698,961.4013L416.09824,960.75665L417.98535,945.6028L417.9854,945.6033 Z M507.68207,728.2894L508.7713,733.9906L451.28333,769.16113L426.9854,966.67267Q426.8104,969.1477,424.50986,970.8851Q423.19763,971.78284,421.47208,971.85986Q421.32913,971.8666,421.18335,971.8667L241.6985,979.7258L241.69041,979.7262Q239.71321,1007.59314,242.07426,1014.7689Q243.74739,1022.40967,250.15384,1024.455Q256.47925,1027.1471,281.3479,1026.9341L414.95374,1023.8124Q419.6895,1024.5859,420.1117,1029.4667Q419.7722,1034.2397,414.90067,1035.0956Q404.49216,1035.3391,394.71838,1035.5715L394.7117,1035.572Q398.31046,1039.2028,398.70554,1044.3383Q398.99548,1050.0021,395.34055,1054.2659Q391.6065,1058.435,385.945,1058.8918Q385.87854,1058.895,385.81183,1058.8983Q380.30206,1059.1445,376.05396,1055.5342Q371.8475,1051.7318,371.41898,1046.1552Q371.11328,1040.5729,374.74792,1036.2697Q374.8484,1036.1571,374.95007,1036.0465L374.95712,1036.0474Q329.5628,1037.1484,299.92038,1037.9791Q291.39413,1038.1749,284.9068,1038.2345L284.89886,1038.235Q288.3422,1041.8158,288.72815,1046.8325Q289.01813,1052.4962,285.3632,1056.7598Q281.62903,1060.9291,275.96786,1061.3862Q275.90128,1061.3899,275.83472,1061.3928Q270.32477,1061.6387,266.07687,1058.0288Q261.8705,1054.2262,261.44177,1048.6494Q261.13605,1043.0675,264.77097,1038.7643Q265.10052,1038.3933,265.4456,1038.0515L265.4536,1038.0509Q251.50797,1037.4204,246.01332,1034.9958Q232.51054,1030.1838,230.27962,1013.1566Q228.51265,1002.67004,230.57861,977.6815L230.58682,977.6813Q229.97629,976.7888,229.62161,975.5209L197.58582,830.2932Q197.29437,828.867,197.7188,827.4774Q199.11308,823.74255,203.00339,823.48486Q207.65355,823.98114,208.58768,827.6417L209.07024,829.82904L209.0703,829.8297L434.06863,816.4476L434.06873,816.4486L440.61948,763.8412Q441.17215,761.9358,443.0964,760.6704L501.12238,722.3007L502.5846,723.1383L502.27618,725.6081 Z"/>
</g>
<g style="fill:rgb(0,0,0); fill-opacity:1.0; stroke-linejoin: miter">
<path d="M735.68494,1004.76953Q741.69904,1022.0277,743.3856,1028.447Q744.64264,1032.7089,743.31964,1033.9183Q742.58716,1034.8141,739.788,1035.6763Q729.6279,1038.5847,722.9375,1040.3723Q707.79645,1044.4277,697.9218,1046.057Q682.4348,1048.5801,670.67926,1047.3466Q657.8977,1045.821,661.13007,1042.1842Q662.33386,1040.8494,666.4765,1038.9497L681.93274,1032.4993L687.43414,1029.9894Q692.16736,1027.6447,695.73706,1025.009Q705.02783,1018.23584,704.7057,1009.8872L735.63434,1004.7781 Z"/>
</g>
<g style="fill:rgb(0,0,0); fill-opacity:1.0; stroke-linejoin: miter">
<path d="M620.6017,1024.2513Q620.9815,1024.2563,621.1576,1024.3654Q621.3109,1024.4434,621.4005,1024.6421L621.2596,1024.6445L619.02075,1024.519Q620.00946,1024.269,620.56335,1024.2516 M621.40894,1024.6526L656.0212,1026.5922Q658.0482,1037.866,657.6149,1041.7998Q657.3786,1046.0999,654.1427,1050.5837Q610.84564,1053.5153,595.4256,1053.5675Q577.6092,1053.7649,575.0325,1051.2767Q571.8237,1048.4052,581.2148,1043.7466Q583.77185,1042.5603,586.30414,1042.0321Q587.3916,1041.8094,588.5237,1041.6866Q593.68896,1041.2804,594.35706,1041.1179Q596.3909,1040.8132,598.7517,1040.0817Q605.32367,1038.0032,612.07794,1034.208Q621.07855,1028.9546,621.4055,1024.655 Z"/>
</g>
<g style="fill:rgb(125,43,66); fill-opacity:1.0; stroke-linejoin: miter">
<path d="M612.64667,677.18134L617.3183,691.17755Q609.25305,703.6224,602.9069,708.29846Q595.73016,713.89746,589.20026,709.0477Q585.1514,706.10583,582.2963,700.78674Q579.494,695.2728,580.35626,692.16113Q580.96027,690.07184,583.81067,689.0792Q584.8397,688.71106,586.47504,688.4052Q594.0371,687.3178,594.93115,686.9973Q597.5843,686.36096,600.42114,685.04956Q605.0067,682.99884,612.623,677.19904 Z"/>
</g>
<g style="fill:rgb(0,0,0); fill-opacity:1.0; stroke-linejoin: miter">
<path d="M611.75604,496.60196Q623.3593,497.37015,631.7424,502.47684Q638.25793,506.59293,640.23553,514.9471Q642.0142,521.9084,640.76715,535.4847L626.99896,560.05963Q603.74634,547.96423,595.767,541.6034Q586.86945,534.9531,585.3074,527.8621Q584.32294,523.6647,585.39813,518.99164Q588.1775,508.78165,589.7462,507.8544Q594.7762,502.3395,601.2495,498.80637Q605.86194,496.38382,611.6731,496.59915 Z"/>
</g>
<g style="fill:rgb(255,186,172); fill-opacity:1.0; stroke-linejoin: miter">
<path d="M621.7921,515.1902Q623.3781,515.03455,625.6767,517.04517Q628.8169,519.7806,628.7908,521.2821Q629.62213,523.1131,627.9626,543.7002L630.51105,543.3091Q631.0106,534.9865,633.45154,533.0007Q636.3118,531.0935,640.28467,533.68005Q641.07544,534.66724,641.3015,536.5951Q641.72644,548.2226,641.9658,549.1204Q642.42865,553.3539,643.5585,556.8886Q645.91113,564.30347,653.22595,574.06604L648.2495,601.0492Q632.017,617.9849,624.7414,617.29944Q619.27606,617.2732,618.13477,612.3922Q617.7435,610.4506,618.01465,607.65393Q617.9099,607.3209,619.68994,596.5499Q619.99255,594.27905,619.9794,592.3962Q619.98926,588.0601,617.7435,582.99005Q611.137,584.77704,608.05316,582.16534Q601.1511,576.4061,595.51166,567.7066Q593.3661,564.2055,592.8654,561.8909Q592.65247,560.9493,592.6046,559.9456Q592.72736,554.9517,592.5035,554.7773Q592.3566,554.04846,592.0714,553.3434Q589.7517,548.6391,589.72705,547.8571Q589.3666,547.02985,589.16876,540.9491Q587.64954,537.0712,587.7129,534.43964Q587.7687,523.77264,590.27466,522.60095Q590.7544,522.28436,591.7792,522.2136Q598.16516,522.6079,600.64044,521.98926Q614.5276,515.8115,621.6824,515.1921 Z"/>
</g>
<g style="fill:rgb(255,186,172); fill-opacity:1.0; stroke-linejoin: miter">
<path d="M597.08075,652.3357L613.1209,675.1224Q607.57446,683.07733,602.3564,686.4303Q597.31635,689.9532,583.82465,694.76764L597.9419,710.2058Q577.36237,719.9022,566.69305,722.41797Q561.6301,723.68195,556.7667,724.11993L538.3766,725.1954Q535.0244,725.57965,532.45087,726.5251Q529.4486,727.68207,526.98016,729.85956Q526.0739,730.3772,519.2499,737.9832Q517.74615,739.50354,516.20514,740.5862Q512.79425,742.9831,507.6537,743.6713Q501.02606,744.22504,499.98822,742.25867Q499.7074,741.5276,498.78088,740.0349L505.1737,736.06506Q506.25305,734.83984,506.63544,733.41754Q507.39783,729.70135,503.82935,727.4392Q501.27362,726.15436,497.90308,727.08234Q496.13055,727.54535,494.19403,728.5457L488.21597,732.0858Q486.82938,732.7037,486.3445,731.9549Q485.45132,725.18335,491.6665,717.8872Q493.63,715.7847,497.33008,713.9082Q498.33173,713.19653,508.90765,709.33014Q510.94116,708.4495,512.2971,707.5242Q513.5697,706.67194,514.6653,705.67114Q519.9747,700.05566,521.2231,699.4186Q532.7817,692.02203,535.8396,689.802L563.42914,669.7685Q571.0201,664.36145,576.30334,661.0576Q588.7943,653.2416,596.9049,652.35693 Z"/>
</g>
<g style="fill:rgb(125,43,66); fill-opacity:1.0; stroke-linejoin: miter">
<path d="M656.02484,567.59344L657.3812,575.3383Q677.7075,584.8736,687.0742,597.3124Q695.02423,607.55853,697.27856,621.06866Q700.36774,638.88257,696.8785,665.2799Q695.15936,678.19946,692.19147,691.4346Q690.04315,701.47296,684.4656,719.67456Q683.729,722.42004,683.53925,724.7305Q683.3287,727.2534,683.78534,729.63556Q686.92633,738.4193,687.1136,743.5912L614.2989,748.94324Q614.82733,744.98676,614.5279,743.50146Q611.2407,738.3102,610.208,727.3825Q609.6108,724.57855,607.3482,682.1721Q606.8679,675.43854,606.07806,671.7962Q605.64777,665.5678,593.64777,652.36725L608.2713,638.06744Q605.2725,617.35724,605.99866,611.5382Q606.2356,608.24817,607.64575,605.9552Q608.1652,604.69806,612.09863,601.90765Q612.7099,601.193,612.82416,600.6615Q613.4175,598.849,612.02655,594.6329L619.74426,589.89716L620.0917,591.1946Q639.66376,574.77454,655.90936,567.65094 Z"/>
</g>
<g style="fill:rgb(69,24,37); fill-opacity:1.0; stroke-linejoin: miter">
<path d="M670.33527,732.5782L685.33777,732.9669Q694.74036,747.41626,695.013,762.4892Q695.26776,773.45685,691.81976,783.965Q690.3727,788.352,688.27686,792.9841Q677.74426,814.8011,677.2104,816.6973Q674.1871,824.06573,672.9669,830.2673Q669.80725,845.4676,674.1483,862.9852Q676.9793,874.5434,684.3085,890.8577Q695.66583,915.4646,705.2843,935.2412L717.96674,958.8686Q725.32245,974.92664,739.73456,1009.9855L702.79596,1017.31836Q701.3512,1000.9651,692.66943,982.6975Q684.4481,964.7483,656.6177,918.13434L657.8807,1030.3131L616.14246,1029.0737Q622.514,1006.0093,622.0941,985.4336Q622.06445,976.72327,620.84576,963.62866L614.3904,902.5083Q613.16406,888.20917,612.77826,876.0058Q612.2628,860.362,612.6395,842.2689L614.794,776.82086Q614.96893,761.96277,613.91455,743.181Q623.036,732.1154,670.09216,732.5837 Z"/>
</g>
<g style="fill:rgb(0,0,0); fill-opacity:1.0; stroke-linejoin: miter">
<path d="M682.5206,629.87994Q679.18555,640.07605,663.09753,651.13306Q649.5506,660.63617,608.5538,682.08936L682.4724,629.9139 Z"/>
</g>
<g style="fill:rgb(125,43,66); fill-opacity:1.0; stroke-linejoin: miter">
<path d="M607.1819,683.67914Q610.29596,697.93195,608.37494,703.41046Q607.3992,706.0894,605.04956,707.70575Q603.1213,709.1521,598.0035,710.5798L607.1716,683.7084 Z"/>
</g>
<g style="fill:rgb(255,11,0); fill-opacity:0.18431373; stroke-linejoin: miter">
<path d="M633.37555,568.0755L627.957,585.2909L620.16644,590.9824L617.79706,582.7891Q624.80145,577.824,627.5478,575.2329Q630.4445,572.5935,633.35803,568.1014 Z"/>
</g>
<g style="fill:rgb(125,43,66); fill-opacity:1.0; stroke-linejoin: miter">
<path d="M648.2229,566.72235Q649.262,568.4367,650.4877,570.2392Q653.2433,568.81995,655.90936,567.65094L656.02484,567.59344L657.3812,575.3383Q677.7075,584.8736,687.0742,597.3124Q695.02423,607.55853,697.27856,621.06866Q700.36774,638.88257,696.8785,665.2799Q695.15936,678.19946,692.19147,691.4346Q690.04315,701.47296,684.4656,719.67456Q683.729,722.42004,683.53925,724.7305Q683.3287,727.2534,683.78534,729.63556Q684.40424,731.3658,684.90826,732.95593L684.90985,732.957L685.33777,732.9669Q694.74036,747.41626,695.013,762.4892Q695.26776,773.45685,691.81976,783.965Q690.3727,788.352,688.27686,792.9841Q687.91095,793.7417,687.5572,794.4752L687.55566,794.47614Q685.5878,798.0579,683.7755,802.35724L683.7738,802.35864Q677.6152,815.25903,677.2104,816.6973Q674.1871,824.06573,672.9669,830.2673Q669.80725,845.4676,674.1483,862.9852Q676.9793,874.5434,684.3085,890.8577Q695.66583,915.4646,705.2843,935.2412L717.96674,958.8686Q725.32245,974.92664,739.73456,1009.9855L737.6306,1010.4031L737.63165,1010.40393Q738.37946,1012.58826,739.0404,1014.5548L739.0392,1014.5553L738.8885,1014.8168Q675.6824,915.4885,665.7135,843.57904L665.71185,843.57947L658.19763,904.876Q657.6953,908.9591,656.6177,918.13434L657.8807,1030.3131L656.6515,1030.2766L656.6496,1030.2776Q656.72437,1030.7448,656.7939,1031.1967Q654.1417,1030.6577,651.1116,1029.9749Q650.5287,992.3606,652.30005,960.0623Q653.5157,861.5003,687.29144,774.8815Q673.7806,727.27234,686.06287,646.25323L680.90265,598.1415L647.2701,566.7531L647.3267,566.7521Q647.77563,566.7373,648.22095,566.72235L648.2229,566.7233L648.2229,566.72235L648.2229,566.7233L648.2229,566.72235 Z"/>
</g>
<g style="fill:rgb(255,0,9); fill-opacity:0.17254902; stroke-linejoin: miter">
<path d="M503.213,743.07324Q511.90112,738.1939,513.9466,735.95197Q515.1299,734.69135,515.4278,733.65894L515.55225,728.8547Q515.7366,727.64355,516.4843,726.48676Q518.26184,723.74963,523.5737,720.7324Q536.90955,713.12897,584.84393,696.5815L526.5632,721.87335Q520.12866,726.6391,518.44653,728.99817Q517.6551,730.0237,517.3367,731.1514Q516.98834,734.7878,516.79724,735.2934Q516.2726,736.5501,515.33887,737.3986Q511.15033,740.77313,503.35596,743.0648 Z"/>
</g>
<g style="fill:rgb(0,0,0); fill-opacity:0.99607843; stroke-linejoin: miter">
<path d="M442.02603,783.69476L442.02603,783.6953Q442.02603,783.6965,442.02603,783.69476"/>
</g>
<g style="fill:rgb(0,0,0); fill-opacity:0.99607843; stroke-linejoin: miter">
<path d="M46.464077,527.09143L46.46419,527.09283Q46.46413,527.09503,46.464077,527.09143 Z"/>
</g>
<g style="fill:rgb(143,22,22); fill-opacity:1.0; stroke-linejoin: miter">
<path d="M20.215683,403.90118L160.22797,412.21344L165.09064,428.36252L62.7353,450.88388Q56.632748,512.38074,46.285816,566.8528L20.215683,403.90118"/>
</g>
<g style="fill:rgb(255,0,0); fill-opacity:0.99607843; stroke-linejoin: miter">
<path d="M-32.964806,607.14575L-65.65108,422.70438L19.376923,392.4268L180.05872,402.29678L184.59096,421.32797L102.19875,454.67017L-17.276302,475.52484L-32.964806,607.14575"/>
</g>
<g style="fill:rgb(143,23,23); fill-opacity:0.99607843; stroke-linejoin: miter">
<path d="M-65.78696,422.88638L14.025641,427.62476L93.83824,432.36313Q98.23084,443.66104,102.623505,454.95898Q42.656128,465.70483,-17.311214,476.4505L-33.113552,608.23254L-65.78696,422.88638"/>
</g>
<g style="fill:rgb(255,255,255); fill-opacity:1.0; stroke-linejoin: miter">
<path d="M-36.56599,412.43607L117.935844,425.91592L121.38105,447.2083L138.51656,439.9678L135.93547,418.71844L-21.439926,406.58072L-36.56599,412.43607"/>
</g>
<g style="fill:rgb(255,255,255); fill-opacity:1.0; stroke-linejoin: miter">
<path d="M-2.0163603,399.74597L154.48537,414.8137L157.71986,432.3366L174.75641,425.58594L172.59969,408.78082L11.1125965,395.2473L-2.0163603,399.74597"/>
</g>
<g style="fill:rgb(255,255,255); fill-opacity:0.23921569; stroke-linejoin: miter">
<path d="M52.55384,601.4128L10.023114,861.3666L46.36392,1086.051L87.26907,820.7467L52.55384,601.4128"/>
</g>
</g>
</svg>